<?xml version="1.0" encoding="iso-8859-1"?>
<!-- Generator: Adobe Illustrator 19.0.0, SVG Export Plug-In . SVG Version: 6.00 Build 0)  -->
<svg version="1.1" id="Layer_1" xmlns="http://www.w3.org/2000/svg" xmlns:xlink="http://www.w3.org/1999/xlink" x="0px" y="0px"
	 viewBox="0 0 512 512" style="enable-background:new 0 0 512 512;" xml:space="preserve">
<path style="fill:#EB86BF;" d="M512,256.006C512,397.402,397.394,512.004,256.004,512C114.606,512.004,0,397.402,0,256.006
	C-0.007,114.61,114.606,0,256.004,0C397.394,0,512,114.614,512,256.006z"/>
<path style="fill:#D670AD;" d="M512,256.005c0-25.326-3.734-49.769-10.583-72.871c-0.214-0.239-84.493-84.561-84.845-84.865
	c-0.27-0.234-0.53-0.455-0.829-0.644c-0.131-0.083-0.225-0.206-0.363-0.282c-0.241-0.132-0.507-0.164-0.757-0.266
	c-0.345-0.141-0.676-0.279-1.039-0.364c-0.416-0.097-0.827-0.123-1.249-0.143c-0.353-0.019-0.695-0.052-1.052-0.016
	c-0.485,0.049-0.942,0.191-1.407,0.337c-0.231,0.074-0.473,0.068-0.7,0.167L97.285,231.742c-2.558,1.107-4.234,3.606-4.278,6.396
	c-0.036,2.254,1.036,4.317,2.772,5.668c0.338,0.419,117.515,117.633,117.732,117.84v46.726c0,2.113,0.993,4,2.521,5.316
	c0.318,0.434,91.723,91.78,92.133,92.133c0.193,0.263,0.45,0.47,0.691,0.691C424.88,482.159,512,379.278,512,256.005z"/>
<path style="fill:#F4F6F9;" d="M418.993,103.565c0-0.439-0.018-0.863-0.098-1.289c-0.061-0.326-0.157-0.634-0.265-0.951
	c-0.15-0.445-0.334-0.861-0.569-1.267c-0.087-0.151-0.111-0.324-0.211-0.47c-0.091-0.133-0.229-0.211-0.327-0.337
	c-0.282-0.362-0.601-0.676-0.953-0.981c-0.27-0.234-0.531-0.455-0.829-0.644c-0.131-0.083-0.225-0.206-0.363-0.282
	c-0.241-0.132-0.507-0.164-0.757-0.266c-0.345-0.141-0.676-0.279-1.038-0.364c-0.416-0.097-0.828-0.124-1.249-0.144
	c-0.354-0.018-0.695-0.051-1.052-0.016c-0.484,0.049-0.942,0.191-1.407,0.337c-0.231,0.074-0.473,0.068-0.699,0.167L97.285,231.742
	c-2.558,1.107-4.233,3.606-4.278,6.396c-0.045,2.783,1.547,5.338,4.07,6.528l116.433,54.793v108.914c0,3.17,2.108,5.961,5.157,6.818
	c0.64,0.18,1.291,0.27,1.932,0.27c2.416,0,4.724-1.239,6.036-3.371l49.247-80.027l76.095,40.05c1.031,0.547,2.166,0.817,3.302,0.817
	c1.024,0,2.046-0.222,2.997-0.665c2.007-0.934,3.461-2.762,3.932-4.929l56.707-262.273c0.032-0.147,0-0.292,0.022-0.441
	C418.994,104.269,418.993,103.923,418.993,103.565z M380.755,124.778L219.111,286.421l-101.779-47.895L380.755,124.778z
	 M227.689,383.327v-76.63l35.62,18.748L227.689,383.327z M350.324,355.222l-66.994-35.261l0.014-0.022l-12.073-7.435l-0.515,0.838
	l-38.339-20.179l167.555-167.555L350.324,355.222z"/>
<g>
</g>
<g>
</g>
<g>
</g>
<g>
</g>
<g>
</g>
<g>
</g>
<g>
</g>
<g>
</g>
<g>
</g>
<g>
</g>
<g>
</g>
<g>
</g>
<g>
</g>
<g>
</g>
<g>
</g>
</svg>
