<svg viewBox="0 0 20 19.99" xmlns="http://www.w3.org/2000/svg"><defs><style>.cls-1{fill:#8e8e8e;}</style></defs><title/><g data-name="Layer 2" id="Layer_2"><g data-name="Layer 1" id="Layer_1-2"><path class="cls-1" d="M10,1.49l1.8,5.8L12,8H18.7l-4.85,3.69-.56.42.21.67,1.83,5.89L10.6,15.07,10,14.61l-.61.46L4.67,18.67,6.5,12.77l.21-.67-.56-.42L1.3,8H8l.22-.7L10,1.49M10,0a.81.81,0,0,0-.77.58L7.24,7H.8A.81.81,0,0,0,0,7.57a.87.87,0,0,0,.29.94l5.21,4-2,6.41a.87.87,0,0,0,.29.94.78.78,0,0,0,.95,0l5.21-4,5.21,4a.78.78,0,0,0,.95,0,.87.87,0,0,0,.29-.94l-2-6.41,5.21-4A.87.87,0,0,0,20,7.57.81.81,0,0,0,19.2,7H12.75l-2-6.41A.81.81,0,0,0,10,0Z"/></g></g></svg>